# OBJ generated by ONSHAPE BY PTC INC, 1.204 Units = meters
mtllib 42nd.mtl
g House
v -1.84667 5.62 -4.275 
v -1.85915e-07 2.85 -1.7 
v -1.85915e-07 5.62 -4.275 
v -1.85915e-07 2.85 -4.27605 
v -1.85915e-07 2.86443 -4.27605 
v -1.85915e-07 2.86443 -6.83658 
v 0.00710668 2.85 -4.27605 
v -2.31893e-08 2.85 -4.27605 
v 0.0226461 2.85 -4.27605 
v -2.31893e-08 2.85 -5.2808e-08 
v 0.0226461 2.85 -13.6261 
v -1.9 5.7 -4.28 
v -1.9 5.7 -6.04403e-08 
v -1.84308 5.61462 -4.28 
v -1.95692 5.61462 -4.28 
v -1.95333 5.62 -4.275 
v -3.8 2.85 -1.7 
v -3.8 2.85 -6.04403e-08 
v -2.31893e-08 0 -5.2808e-08 
v -3.8 0 -6.04403e-08 
v 0.0113231 -8.88178e-16 -6.81303 
v 0.0226461 0 -13.6261 
v -3.8 2.85 0.3 
v -3.8 0 0.3 
v -5.3 5.44808 0.3 
v -5.3 5.44808 -4.11518 
v -6.8 2.85 0.3 
v -6.8 0 0.3 
v -6.8 2.85 -1.7 
v -6.8 0 -1.7 
v -4.32368 5.62 -13.6261 
v -4.3219 5.61887 -4.27605 
v -4.32368 5.62 -4.27605 
v -4.32545 5.61887 -4.27605 
v -8.67 0 -13.6261 
v -8.67 2.85 -13.6261 
v -8.67 0 -13.1161 
v -8.67 2.85 -13.1161 
v -9.9 5.62 -4.275 
v -9.9 2.85 -6.85 
v -8.67 2.85 -6.85 
v -9.9 2.85 -1.7 
v -9.9 0 -6.85 
v -9.9 0 -1.7 
v -8.35 5.18184 -3.86769 
v -8.35 5.18184 -1.7 
v -8.67 2.85 -10.3 
v -8.65 0 -6.85 
v -8.65 2.85 -6.85 
v -8.95 0 -13.1161 
v -8.95 2.85 -13.1161 
v -9.84803 0 -12.218 
v -9.84803 2.85 -12.218 
v -9.84803 0 -11.198 
v -9.84803 2.85 -11.198 
v -8.65 0 -10.3 
v -8.95 0 -10.3 
v -8.95 2.85 -10.3 
v -8.65 2.85 -10.3 
vn 0 0.680857 0.732417 
vn 1 0 0 
vn 0 0 1 
vn 0 1 0 
vn 0 -1 0 
vn 0.83205 0.5547 -7.75926e-16 
vn -9.32547e-16 0 -1 
vn -0.83205 0.5547 7.75926e-16 
vn 9.32547e-16 0 1 
vn 0.999999 0 0.00166197 
vn 1 0 0 
vn 0.866025 0.5 -6.08938e-16 
vn 7.03141e-16 0 1 
vn -0.866025 0.5 6.08938e-16 
vn -1 0 8.88178e-16 
vn 0.53745 0.843296 0 
vn 0 0 1 
vn 0 0 -1 
vn -1 0 0 
vn 0 0.680857 -0.732417 
vn 0 0.680857 0.732417 
vn 4.29764e-16 0 1 
vn -0.832802 0.553571 3.57908e-16 
vn 0.832802 0.553571 -3.57908e-16 
vn -0.53745 0.843296 0 
vn 0 0 -1 
vn -0.707107 0 -0.707107 
vn -1 0 0 
vn 0 -1 0 
vn 0 1 0 
vn 0 0 1 
vn -0.707107 0 0.707107 
vn -1 0 0 
vn 0 -1 0 
usemtl 0.615686_0.811765_0.929412_0.000000_0.000000
o mesh0
f 1//1 2//1 3//1 
o mesh1
f 2//2 4//2 5//2 
f 5//2 3//2 2//2 
f 5//2 6//2 3//2 
o mesh2
f 7//3 5//3 4//3 
f 4//3 8//3 7//3 
f 7//3 9//3 5//3 
o mesh3
f 8//4 10//4 7//4 
o mesh4
f 7//5 11//5 9//5 
o mesh5
f 10//6 8//6 2//6 
f 12//6 2//6 1//6 
f 2//6 13//6 10//6 
f 2//6 12//6 13//6 
f 8//6 4//6 2//6 
f 1//6 14//6 12//6 
o mesh6
f 15//7 12//7 14//7 
o mesh7
f 13//8 16//8 17//8 
f 13//8 12//8 16//8 
f 12//8 15//8 16//8 
f 17//8 18//8 13//8 
o mesh8
f 19//9 10//9 18//9 
f 10//9 13//9 18//9 
f 18//9 20//9 19//9 
o mesh9
f 11//10 7//10 21//10 
f 19//10 21//10 7//10 
f 7//10 10//10 19//10 
f 21//10 22//10 11//10 
o mesh10
f 23//11 24//11 20//11 
f 20//11 18//11 23//11 
o mesh11
f 25//12 18//12 17//12 
f 25//12 23//12 18//12 
f 17//12 26//12 25//12 
o mesh12
f 24//13 23//13 27//13 
f 23//13 25//13 27//13 
f 27//13 28//13 24//13 
o mesh13
f 25//14 26//14 29//14 
f 29//14 27//14 25//14 
o mesh14
f 29//15 30//15 28//15 
f 28//15 27//15 29//15 
o mesh15
f 31//16 32//16 6//16 
f 9//16 11//16 6//16 
f 31//16 33//16 32//16 
f 6//16 11//16 31//16 
f 6//16 5//16 9//16 
o mesh16
f 32//17 33//17 34//17 
o mesh17
f 11//18 35//18 36//18 
f 36//18 31//18 11//18 
f 11//18 22//18 35//18 
o mesh18
f 36//19 35//19 37//19 
f 37//19 38//19 36//19 
o mesh19
f 39//20 16//20 34//20 
f 34//20 40//20 39//20 
f 16//20 15//20 32//20 
f 6//20 32//20 15//20 
f 32//20 34//20 16//20 
f 3//20 6//20 14//20 
f 34//20 41//20 40//20 
f 15//20 14//20 6//20 
f 14//20 1//20 3//20 
o mesh20
f 42//19 39//19 40//19 
f 43//19 44//19 42//19 
f 40//19 43//19 42//19 
o mesh21
f 26//21 39//21 45//21 
f 45//21 29//21 26//21 
f 39//21 42//21 45//21 
f 26//21 16//21 39//21 
f 26//21 17//21 16//21 
o mesh22
f 30//22 29//22 42//22 
f 29//22 46//22 42//22 
f 42//22 44//22 30//22 
o mesh23
f 42//23 46//23 45//23 
o mesh24
f 45//24 46//24 29//24 
o mesh25
f 34//25 31//25 47//25 
f 47//25 41//25 34//25 
f 31//25 38//25 47//25 
f 31//25 36//25 38//25 
f 34//25 33//25 31//25 
o mesh26
f 43//26 40//26 41//26 
f 41//26 48//26 43//26 
f 41//26 49//26 48//26 
o mesh27
f 38//26 37//26 50//26 
f 50//26 51//26 38//26 
o mesh28
f 51//27 50//27 52//27 
f 52//27 53//27 51//27 
o mesh29
f 53//28 52//28 54//28 
f 54//28 55//28 53//28 
o mesh30
f 56//29 52//29 50//29 
f 52//29 56//29 57//29 
f 22//29 56//29 37//29 
f 57//29 54//29 52//29 
f 21//29 48//29 56//29 
f 50//29 37//29 56//29 
f 56//29 22//29 21//29 
f 43//29 20//29 30//29 
f 28//29 30//29 20//29 
f 21//29 19//29 48//29 
f 20//29 43//29 48//29 
f 20//29 24//29 28//29 
f 48//29 19//29 20//29 
f 37//29 35//29 22//29 
f 30//29 44//29 43//29 
o mesh31
f 53//30 55//30 58//30 
f 47//30 38//30 51//30 
f 51//30 53//30 47//30 
f 58//30 47//30 53//30 
o mesh32
f 57//31 56//31 47//31 
f 56//31 59//31 47//31 
f 47//31 58//31 57//31 
o mesh33
f 55//32 54//32 57//32 
f 57//32 58//32 55//32 
o mesh34
f 59//33 56//33 48//33 
f 48//33 49//33 59//33 
o mesh35
f 41//34 47//34 59//34 
f 59//34 49//34 41//34 
g Garage
v -0.65 2.5 -28.18 
v 1 4.15 -28.18 
v 2.65 2.5 -28.18 
v 2.65 2.5 -28.15 
v -0.65 2.5 -28.15 
v 1 4.15 -24.48 
v 2.65 2.5 -24.48 
v -0.65 2.5 -24.48 
v 2.65 0 -28.15 
v -0.65 0 -28.15 
v -0.65 0 -24.45 
v -0.65 2.5 -24.45 
v -2.55 0 -24.45 
v -2.55 2.5 -24.45 
v 2.65 0 -18.88 
v -2.55 0 -18.88 
v -2.55 2.5 -18.88 
v -2.84074 2.5 -18.88 
v -2.84074 2.5 -24.48 
v 2.65 2.5 -18.88 
v 0.15926 7.69615 -18.88 
v 3.15926 2.5 -18.88 
v 0.15926 7.69615 -24.48 
v 3.15926 2.5 -24.48 
vn -1.21005e-16 0 -1 
vn 0 -1 0 
vn 0.707107 0.707107 -8.55636e-17 
vn -0.707107 0.707107 8.55636e-17 
vn 0 0 -1 
vn -1 0 0 
vn 0 -1 0 
vn 1 0 -1.43718e-16 
vn 0 0 1 
vn 0 0 -1 
vn 0 -1 0 
vn 0.866025 0.5 0 
vn -0.866025 0.5 0 
usemtl 1.000000_1.000000_1.000000_0.000000_0.000000
o mesh36
f 60//35 61//35 62//35 
o mesh37
f 62//36 63//36 64//36 
f 64//36 60//36 62//36 
o mesh38
f 65//37 66//37 63//37 
f 63//37 61//37 65//37 
f 63//37 62//37 61//37 
o mesh39
f 65//38 61//38 64//38 
f 61//38 60//38 64//38 
f 64//38 67//38 65//38 
o mesh40
f 63//39 68//39 69//39 
f 69//39 64//39 63//39 
o mesh41
f 69//40 70//40 67//40 
f 70//40 71//40 67//40 
f 67//40 64//40 69//40 
o mesh42
f 71//39 70//39 72//39 
f 72//39 73//39 71//39 
o mesh43
f 68//41 74//41 70//41 
f 75//41 72//41 70//41 
f 70//41 74//41 75//41 
f 70//41 69//41 68//41 
o mesh44
f 73//40 72//40 75//40 
f 75//40 76//40 73//40 
o mesh45
f 77//41 78//41 73//41 
f 67//41 71//41 73//41 
f 73//41 78//41 67//41 
f 73//41 76//41 77//41 
o mesh46
f 74//42 68//42 66//42 
f 68//42 63//42 66//42 
f 66//42 79//42 74//42 
o mesh47
f 74//43 79//43 76//43 
f 76//43 75//43 74//43 
f 80//43 77//43 76//43 
f 79//43 80//43 76//43 
f 79//43 81//43 80//43 
o mesh48
f 82//44 65//44 67//44 
f 83//44 66//44 65//44 
f 65//44 82//44 83//44 
f 67//44 78//44 82//44 
o mesh49
f 81//45 79//45 66//45 
f 66//45 83//45 81//45 
o mesh50
f 82//46 80//46 81//46 
f 81//46 83//46 82//46 
o mesh51
f 78//47 77//47 80//47 
f 80//47 82//47 78//47 
g Fence-exterior
v -11.9 2 -6.85 
v -11.9 2 -13.95 
v -11.9 0 -13.95 
v -11.9 0 -21.05 
v -11.9 2 -21.05 
v -11.9 0 -28.15 
v -11.9 2 -28.15 
v -11.9 0 -6.85 
v -9.9 0 -6.85 
v -9.9 2 -6.85 
v -9.9 0 -6.855 
v -9.9 2 -6.855 
v -11.895 0 -6.855 
v -11.895 2 -6.855 
v -11.895 2 -28.145 
v -11.895 2 -21.0483 
v -11.895 0 -21.0483 
v -11.895 0 -13.9517 
v -11.895 2 -13.9517 
v -11.895 0 -28.145 
v -0.65 2 -28.15 
v -6.275 2 -28.15 
v -6.2725 2 -28.145 
v -0.65 2 -28.145 
v -0.65 0 -28.15 
v -0.65 0 -28.145 
v -6.2725 0 -28.145 
v -6.275 0 -28.15 
vn -1 0 0 
vn 1.11022e-16 0 1 
vn 1 0 0 
vn -1.11022e-16 0 -1 
vn 0 1 0 
vn 0 -1 0 
vn 0 0 1 
vn 1 0 0 
vn 0 0 -1 
usemtl 0.984314_0.388235_0.149020_0.000000_0.000000
o mesh52
f 84//48 85//48 86//48 
f 87//48 86//48 85//48 
f 85//48 88//48 87//48 
f 89//48 87//48 88//48 
f 88//48 90//48 89//48 
f 86//48 91//48 84//48 
o mesh53
f 84//49 91//49 92//49 
f 92//49 93//49 84//49 
o mesh54
f 93//50 92//50 94//50 
f 94//50 95//50 93//50 
o mesh55
f 95//51 94//51 96//51 
f 96//51 97//51 95//51 
o mesh56
f 98//50 99//50 100//50 
f 101//50 100//50 99//50 
f 99//50 102//50 101//50 
f 96//50 101//50 102//50 
f 102//50 97//50 96//50 
f 100//50 103//50 98//50 
o mesh57
f 85//52 84//52 97//52 
f 88//52 85//52 102//52 
f 104//52 105//52 106//52 
f 105//52 90//52 98//52 
f 102//52 99//52 88//52 
f 88//52 99//52 98//52 
f 98//52 106//52 105//52 
f 98//52 90//52 88//52 
f 97//52 102//52 85//52 
f 93//52 95//52 97//52 
f 97//52 84//52 93//52 
f 106//52 107//52 104//52 
o mesh58
f 87//53 89//53 103//53 
f 87//53 100//53 101//53 
f 101//53 86//53 87//53 
f 86//53 101//53 96//53 
f 92//53 91//53 96//53 
f 96//53 91//53 86//53 
f 108//53 109//53 110//53 
f 111//53 110//53 103//53 
f 103//53 100//53 87//53 
f 103//53 89//53 111//53 
f 110//53 111//53 108//53 
f 96//53 94//53 92//53 
o mesh59
f 107//54 106//54 110//54 
f 103//54 110//54 106//54 
f 106//54 98//54 103//54 
f 110//54 109//54 107//54 
o mesh60
f 107//55 109//55 108//55 
f 108//55 104//55 107//55 
o mesh61
f 90//56 105//56 111//56 
f 108//56 111//56 105//56 
f 105//56 104//56 108//56 
f 111//56 89//56 90//56 
g Fence-interior
v -2.315 2.01 -18.8261 
v -2.315 0 -18.8261 
v -2.32 0 -18.8261 
v -2.32 2.01 -18.8261 
v -2.32 0 -13.6261 
v -2.32 2.01 -13.6261 
v -2.315 0 -13.6261 
v -2.315 2.01 -13.6261 
vn 0 0 -1 
vn -1 0 0 
vn 0 0 1 
vn 1 0 0 
vn 0 1 0 
vn 0 -1 0 
usemtl 0.231373_0.380392_0.705882_0.000000_0.000000
o mesh62
f 112//57 113//57 114//57 
f 114//57 115//57 112//57 
o mesh63
f 115//58 114//58 116//58 
f 116//58 117//58 115//58 
o mesh64
f 117//59 116//59 118//59 
f 118//59 119//59 117//59 
o mesh65
f 119//60 118//60 113//60 
f 113//60 112//60 119//60 
o mesh66
f 119//61 112//61 115//61 
f 115//61 117//61 119//61 
o mesh67
f 116//62 114//62 113//62 
f 113//62 118//62 116//62 
